<svg width="32" height="32" viewBox="0 0 32 32" fill="none" xmlns="http://www.w3.org/2000/svg">
<path d="M16.6314 10.9604L26.7571 28.5033C27.0086 28.949 27.6486 28.9604 27.9343 28.5376L31.6829 22.7433C31.82 22.5261 31.8314 22.2519 31.7057 22.0233L20.4829 2.62899C20.22 2.17185 19.5571 2.17185 19.2943 2.62899L15.9914 8.32042C15.8657 8.53756 15.6371 8.66328 15.3971 8.66328H8.49429C8.24286 8.66328 8.02572 8.78899 7.90001 9.00613L0.380007 22.0576C0.254292 22.2747 0.254292 22.5261 0.380007 22.7433L4.06001 29.1433C4.18572 29.3604 4.41429 29.4861 4.65429 29.4861H19.42C19.9457 29.4861 20.2771 28.9147 20.0143 28.4576L16.62 22.5947C16.3571 22.1376 15.6943 22.1376 15.4314 22.5947L12.7914 27.189C12.5286 27.6461 11.8657 27.6461 11.6029 27.189L9.04286 22.7433C8.91715 22.5261 8.91715 22.2747 9.04286 22.0576L15.4314 10.9718C15.6943 10.5147 16.3571 10.5147 16.62 10.9718L16.6314 10.9604Z" fill="#FF802C"/>
</svg>
