<svg width="32" height="32" viewBox="0 0 32 32" fill="none" xmlns="http://www.w3.org/2000/svg">
<path d="M16.6318 10.9594L26.7576 28.5023C27.009 28.948 27.649 28.9594 27.9347 28.5366L31.6833 22.7423C31.8204 22.5252 31.8318 22.2509 31.7061 22.0223L20.4833 2.62801C20.2204 2.17087 19.5576 2.17087 19.2947 2.62801L15.9918 8.31944C15.8661 8.53659 15.6376 8.6623 15.3976 8.6623H8.4947C8.24327 8.6623 8.02613 8.78801 7.90042 9.00516L0.380419 22.0566C0.254704 22.2737 0.254704 22.5252 0.380419 22.7423L4.06042 29.1423C4.18613 29.3594 4.4147 29.4852 4.6547 29.4852H19.4204C19.9461 29.4852 20.2776 28.9137 20.0147 28.4566L16.6204 22.5937C16.3576 22.1366 15.6947 22.1366 15.4318 22.5937L12.7918 27.188C12.529 27.6452 11.8661 27.6452 11.6033 27.188L9.04327 22.7423C8.91756 22.5252 8.91756 22.2737 9.04327 22.0566L15.4318 10.9709C15.6947 10.5137 16.3576 10.5137 16.6204 10.9709L16.6318 10.9594Z" fill="#FF802C"/>
</svg>
