<svg width="32" height="28" viewBox="0 0 32 28" fill="none" xmlns="http://www.w3.org/2000/svg">
<path d="M16.6318 8.95944L26.7576 26.5023C27.009 26.948 27.649 26.9594 27.9347 26.5366L31.6833 20.7423C31.8204 20.5252 31.8318 20.2509 31.7061 20.0223L20.4833 0.628013C20.2204 0.170871 19.5576 0.170871 19.2947 0.628013L15.9918 6.31944C15.8661 6.53659 15.6376 6.6623 15.3976 6.6623H8.4947C8.24327 6.6623 8.02613 6.78801 7.90042 7.00516L0.380419 20.0566C0.254704 20.2737 0.254704 20.5252 0.380419 20.7423L4.06042 27.1423C4.18613 27.3594 4.4147 27.4852 4.6547 27.4852H19.4204C19.9461 27.4852 20.2776 26.9137 20.0147 26.4566L16.6204 20.5937C16.3576 20.1366 15.6947 20.1366 15.4318 20.5937L12.7918 25.188C12.529 25.6452 11.8661 25.6452 11.6033 25.188L9.04327 20.7423C8.91756 20.5252 8.91756 20.2737 9.04327 20.0566L15.4318 8.97087C15.6947 8.51373 16.3576 8.51373 16.6204 8.97087L16.6318 8.95944Z" fill="#FF802C"/>
</svg>
