<svg width="48" height="48" viewBox="0 0 48 48" fill="none" xmlns="http://www.w3.org/2000/svg">
<path d="M23.8485 24C28.5429 24 32.3485 20.1944 32.3485 15.5C32.3485 10.8056 28.5429 7 23.8485 7C19.1541 7 15.3485 10.8056 15.3485 15.5C15.3485 20.1944 19.1541 24 23.8485 24Z" stroke="#B6B6B8" stroke-width="2.5"/>
<path d="M32.3484 27.3999H32.9468C34.1897 27.4003 35.3896 27.8544 36.3212 28.6771C37.2528 29.4997 37.8519 30.6343 38.006 31.8675L38.6707 37.1783C38.7305 37.6567 38.6879 38.1424 38.5456 38.6031C38.4033 39.0638 38.1647 39.4889 37.8456 39.8504C37.5264 40.2118 37.1341 40.5012 36.6946 40.6994C36.255 40.8976 35.7784 41 35.2962 40.9999H12.4006C11.9185 41 11.4418 40.8976 11.0023 40.6994C10.5627 40.5012 10.1704 40.2118 9.85126 39.8504C9.53212 39.4889 9.29351 39.0638 9.15125 38.6031C9.00898 38.1424 8.96633 37.6567 9.02612 37.1783L9.68912 31.8675C9.8433 30.6337 10.4429 29.4987 11.3752 28.676C12.3075 27.8532 13.5083 27.3994 14.7517 27.3999H15.3484" stroke="#B6B6B8" stroke-width="2.5" stroke-linecap="round" stroke-linejoin="round"/>
</svg>
