<svg width="48" height="36" viewBox="0 0 48 36" fill="none" xmlns="http://www.w3.org/2000/svg">
<path d="M41.548 30C43.048 30 44.238 29.058 45.308 27.74C47.5 25.04 43.902 22.88 42.53 21.826C41.136 20.752 39.578 20.142 38 20M36 16C37.3261 16 38.5978 15.4732 39.5355 14.5355C40.4732 13.5979 41 12.3261 41 11C41 9.67392 40.4732 8.40215 39.5355 7.46447C38.5978 6.52678 37.3261 6 36 6M6.45199 30C4.95199 30 3.76199 29.058 2.69199 27.74C0.499989 25.04 4.09799 22.88 5.46999 21.826C6.86399 20.752 8.41999 20.14 9.99999 20M11 16C9.67391 16 8.40214 15.4732 7.46446 14.5355C6.52677 13.5979 5.99999 12.3261 5.99999 11C5.99999 9.67392 6.52677 8.40215 7.46446 7.46447C8.40214 6.52678 9.67391 6 11 6M16.168 24.222C14.124 25.486 8.76599 28.066 12.028 31.294C13.626 32.872 15.4 34 17.634 34H30.37C32.604 34 34.378 32.872 35.972 31.294C39.236 28.066 33.878 25.486 31.834 24.222C29.4797 22.77 26.7681 22.0011 24.002 22.0011C21.2359 22.0011 18.5243 22.77 16.17 24.222M31 9C31 9.91925 30.8189 10.8295 30.4671 11.6788C30.1154 12.5281 29.5997 13.2997 28.9497 13.9497C28.2997 14.5998 27.5281 15.1154 26.6788 15.4672C25.8295 15.8189 24.9192 16 24 16C23.0807 16 22.1705 15.8189 21.3212 15.4672C20.4719 15.1154 19.7003 14.5998 19.0502 13.9497C18.4002 13.2997 17.8846 12.5281 17.5328 11.6788C17.1811 10.8295 17 9.91925 17 9C17 7.14348 17.7375 5.36301 19.0502 4.05025C20.363 2.7375 22.1435 2 24 2C25.8565 2 27.637 2.7375 28.9497 4.05025C30.2625 5.36301 31 7.14348 31 9Z" stroke="#B6B6B8" stroke-width="2.5" stroke-linecap="round" stroke-linejoin="round"/>
</svg>
