<svg width="48" height="48" viewBox="0 0 48 48" fill="none" xmlns="http://www.w3.org/2000/svg">
<path d="M13.4167 26.1765C13.0409 26.1765 12.6806 26.3252 12.4149 26.59C12.1493 26.8547 12 27.2138 12 27.5882C12 27.9627 12.1493 28.3217 12.4149 28.5865C12.6806 28.8513 13.0409 29 13.4167 29H14.3611C14.7368 29 15.0972 28.8513 15.3628 28.5865C15.6285 28.3217 15.7778 27.9627 15.7778 27.5882C15.7778 27.2138 15.6285 26.8547 15.3628 26.59C15.0972 26.3252 14.7368 26.1765 14.3611 26.1765H13.4167ZM12 21C12 20.6256 12.1493 20.2665 12.4149 20.0017C12.6806 19.737 13.0409 19.5882 13.4167 19.5882H14.3611C14.7368 19.5882 15.0972 19.737 15.3628 20.0017C15.6285 20.2665 15.7778 20.6256 15.7778 21C15.7778 21.3744 15.6285 21.7335 15.3628 21.9983C15.0972 22.263 14.7368 22.4118 14.3611 22.4118H13.4167C13.0409 22.4118 12.6806 22.263 12.4149 21.9983C12.1493 21.7335 12 21.3744 12 21ZM13.4167 13C13.0409 13 12.6806 13.1487 12.4149 13.4135C12.1493 13.6783 12 14.0373 12 14.4118C12 14.7862 12.1493 15.1453 12.4149 15.41C12.6806 15.6748 13.0409 15.8235 13.4167 15.8235H14.3611C14.7368 15.8235 15.0972 15.6748 15.3628 15.41C15.6285 15.1453 15.7778 14.7862 15.7778 14.4118C15.7778 14.0373 15.6285 13.6783 15.3628 13.4135C15.0972 13.1487 14.7368 13 14.3611 13H13.4167ZM18.6111 27.5882C18.6111 27.2138 18.7604 26.8547 19.026 26.59C19.2917 26.3252 19.6521 26.1765 20.0278 26.1765H20.9722C21.3479 26.1765 21.7083 26.3252 21.974 26.59C22.2396 26.8547 22.3889 27.2138 22.3889 27.5882C22.3889 27.9627 22.2396 28.3217 21.974 28.5865C21.7083 28.8513 21.3479 29 20.9722 29H20.0278C19.6521 29 19.2917 28.8513 19.026 28.5865C18.7604 28.3217 18.6111 27.9627 18.6111 27.5882ZM20.0278 19.5882C19.6521 19.5882 19.2917 19.737 19.026 20.0017C18.7604 20.2665 18.6111 20.6256 18.6111 21C18.6111 21.3744 18.7604 21.7335 19.026 21.9983C19.2917 22.263 19.6521 22.4118 20.0278 22.4118H20.9722C21.3479 22.4118 21.7083 22.263 21.974 21.9983C22.2396 21.7335 22.3889 21.3744 22.3889 21C22.3889 20.6256 22.2396 20.2665 21.974 20.0017C21.7083 19.737 21.3479 19.5882 20.9722 19.5882H20.0278ZM18.6111 14.4118C18.6111 14.0373 18.7604 13.6783 19.026 13.4135C19.2917 13.1487 19.6521 13 20.0278 13H20.9722C21.3479 13 21.7083 13.1487 21.974 13.4135C22.2396 13.6783 22.3889 14.0373 22.3889 14.4118C22.3889 14.7862 22.2396 15.1453 21.974 15.41C21.7083 15.6748 21.3479 15.8235 20.9722 15.8235H20.0278C19.6521 15.8235 19.2917 15.6748 19.026 15.41C18.7604 15.1453 18.6111 14.7862 18.6111 14.4118ZM26.6389 26.1765C26.2632 26.1765 25.9028 26.3252 25.6372 26.59C25.3715 26.8547 25.2222 27.2138 25.2222 27.5882C25.2222 27.9627 25.3715 28.3217 25.6372 28.5865C25.9028 28.8513 26.2632 29 26.6389 29H27.5833C27.9591 29 28.3194 28.8513 28.5851 28.5865C28.8507 28.3217 29 27.9627 29 27.5882C29 27.2138 28.8507 26.8547 28.5851 26.59C28.3194 26.3252 27.9591 26.1765 27.5833 26.1765H26.6389ZM25.2222 21C25.2222 20.6256 25.3715 20.2665 25.6372 20.0017C25.9028 19.737 26.2632 19.5882 26.6389 19.5882H27.5833C27.9591 19.5882 28.3194 19.737 28.5851 20.0017C28.8507 20.2665 29 20.6256 29 21C29 21.3744 28.8507 21.7335 28.5851 21.9983C28.3194 22.263 27.9591 22.4118 27.5833 22.4118H26.6389C26.2632 22.4118 25.9028 22.263 25.6372 21.9983C25.3715 21.7335 25.2222 21.3744 25.2222 21ZM26.6389 13C26.2632 13 25.9028 13.1487 25.6372 13.4135C25.3715 13.6783 25.2222 14.0373 25.2222 14.4118C25.2222 14.7862 25.3715 15.1453 25.6372 15.41C25.9028 15.6748 26.2632 15.8235 26.6389 15.8235H27.5833C27.9591 15.8235 28.3194 15.6748 28.5851 15.41C28.8507 15.1453 29 14.7862 29 14.4118C29 14.0373 28.8507 13.6783 28.5851 13.4135C28.3194 13.1487 27.9591 13 27.5833 13H26.6389Z" fill="#B6B6B8"/>
<path d="M36.7 42H38.2C39.8569 42 41.2 40.6569 41.2 39V27C41.2 25.1115 40.3108 23.3331 38.8 22.2L37.6 21.3M25.1552 40.5V37.2C25.1552 36.3716 24.4836 35.7 23.6552 35.7H18.2759C17.4474 35.7 16.7759 36.3716 16.7759 37.2V40.5C16.7759 41.3284 16.1043 42 15.2759 42H10C8.34315 42 7 40.6569 7 39V9C7 7.34315 8.34315 6 10 6H31C32.6569 6 34 7.34315 34 9V39C34 40.6569 32.6569 42 31 42H26.6552C25.8267 42 25.1552 41.3284 25.1552 40.5Z" stroke="#B6B6B8" stroke-width="2.25" stroke-linecap="round"/>
</svg>
